<svg width="28" height="28" viewBox="0 0 28 28" fill="none" xmlns="http://www.w3.org/2000/svg">
<path d="M14.0232 5.15253C10.1615 5.15253 7.02319 8.06669 7.02319 11.6525V14.7834C7.02319 15.4442 6.71986 16.4517 6.35819 17.015L5.01653 19.0842C4.18819 20.3625 4.75986 21.7817 6.27653 22.2584C11.3049 23.8184 16.7299 23.8184 21.7582 22.2584C23.1699 21.825 23.7882 20.2759 23.0182 19.0842L21.6765 17.015C21.3265 16.4517 21.0232 15.4442 21.0232 14.7834V11.6525C21.0232 8.07753 17.8732 5.15253 14.0232 5.15253Z" stroke="#292D32" stroke-width="1.5" stroke-miterlimit="10" stroke-linecap="round"/>
<path d="M16.1819 5.46668C15.8202 5.36918 15.4469 5.29335 15.0619 5.25002C13.9419 5.12002 12.8686 5.19585 11.8652 5.46668C12.2036 4.66502 13.0436 4.10168 14.0236 4.10168C15.0036 4.10168 15.8436 4.66502 16.1819 5.46668Z" stroke="#292D32" stroke-width="1.5" stroke-miterlimit="10" stroke-linecap="round" stroke-linejoin="round"/>
<path d="M17.5234 22.6483C17.5234 24.4358 15.9484 25.8983 14.0234 25.8983C13.0668 25.8983 12.1801 25.53 11.5501 24.945C10.9201 24.36 10.5234 23.5366 10.5234 22.6483" stroke="#292D32" stroke-width="1.5" stroke-miterlimit="10"/>
<circle cx="20.5" cy="2.5" r="2.5" fill="#5B4490"/>
</svg>
